<?xml version="1.0" standalone="no"?>
<!DOCTYPE svg PUBLIC "-//W3C//DTD SVG 20010904//EN"
 "http://www.w3.org/TR/2001/REC-SVG-20010904/DTD/svg10.dtd">
<svg version="1.0" xmlns="http://www.w3.org/2000/svg"
 width="16.000000pt" height="16.000000pt" viewBox="0 0 16.000000 16.000000"
 preserveAspectRatio="xMidYMid meet">
<metadata>
Created by potrace 1.11, written by Peter Selinger 2001-2013
</metadata>
<g transform="translate(0.000000,16.000000) scale(0.002847,-0.002847)"
fill="#000000" stroke="none">
<path d="M3282 4450 c-63 -28 -70 -56 -71 -263 -1 -189 6 -224 48 -261 32 -29
108 -32 149 -6 54 34 60 62 58 275 -2 205 -5 219 -57 249 -40 24 -83 26 -127
6z"/>
<path d="M2240 4023 c-56 -20 -89 -89 -76 -158 8 -39 113 -153 168 -181 48
-25 106 -13 145 30 18 20 33 44 34 53 0 10 2 27 4 37 6 29 -22 75 -84 140 -73
76 -132 100 -191 79z"/>
<path d="M4335 4014 c-16 -8 -47 -33 -67 -55 -21 -21 -40 -39 -42 -39 -11 0
-153 -154 -169 -183 -20 -36 -17 -96 7 -132 33 -50 122 -68 176 -35 41 25 260
248 270 276 13 33 13 87 -1 116 -26 58 -112 84 -174 52z"/>
<path d="M3190 3629 c-196 -56 -287 -104 -401 -211 -38 -36 -41 -37 -63 -23
-88 58 -284 105 -411 99 -128 -5 -216 -31 -361 -105 -236 -120 -404 -314 -473
-546 l-21 -69 -57 -18 c-32 -10 -87 -34 -123 -53 -287 -156 -432 -455 -386
-794 18 -131 88 -276 183 -379 96 -104 186 -161 320 -203 133 -42 240 -49 843
-52 239 -2 563 -5 720 -8 314 -6 400 2 531 48 167 58 318 174 409 314 28 42
49 78 49 81 -1 3 7 23 18 45 67 134 73 379 14 536 l-20 50 43 67 c91 143 123
256 124 435 3 321 -157 581 -445 726 -56 28 -91 38 -188 56 -60 11 -271 14
-305 4z m317 -285 c219 -71 343 -238 349 -471 1 -50 -2 -113 -7 -140 -12 -66
-39 -153 -48 -153 -5 0 -34 23 -65 50 -118 103 -258 147 -503 159 -6 1 -15 16
-18 34 -4 17 -10 37 -13 42 -4 6 -7 15 -8 20 -8 49 -123 240 -183 303 -17 18
-31 37 -31 42 0 23 182 120 265 141 51 13 179 0 262 -27z m-1011 -149 c133
-31 230 -90 346 -213 33 -34 89 -138 107 -198 19 -59 22 -76 37 -179 3 -27 11
-55 16 -62 13 -16 142 -30 306 -34 130 -2 185 -21 273 -95 134 -111 188 -279
152 -469 -14 -77 -67 -193 -110 -241 -70 -77 -179 -137 -277 -151 -54 -8
-1699 -8 -1751 0 -75 11 -202 57 -246 89 -79 57 -137 134 -176 235 -21 56 -26
85 -25 163 0 134 26 196 130 304 57 59 111 97 194 136 54 26 89 36 195 56 17
3 24 15 33 60 17 79 67 227 102 302 46 98 106 150 268 231 77 39 154 74 172
80 42 11 175 4 254 -14z"/>
<path d="M4484 2968 c-90 -24 -125 -146 -58 -209 40 -38 79 -44 259 -43 186 1
212 7 249 57 45 61 9 177 -59 194 -41 10 -355 11 -391 1z"/>
<path d="M4238 2004 c-42 -18 -68 -63 -68 -118 0 -48 12 -68 93 -148 71 -71
106 -86 165 -73 63 13 106 97 88 169 -8 32 -134 162 -170 176 -36 13 -64 12
-108 -6z"/>
</g>
</svg>
